<?xml version="1.0" encoding="UTF-8" standalone="no"?>
<svg
   xmlns:dc="http://purl.org/dc/elements/1.1/"
   xmlns:cc="http://creativecommons.org/ns#"
   xmlns:rdf="http://www.w3.org/1999/02/22-rdf-syntax-ns#"
   xmlns:svg="http://www.w3.org/2000/svg"
   xmlns="http://www.w3.org/2000/svg"
   xmlns:sodipodi="http://sodipodi.sourceforge.net/DTD/sodipodi-0.dtd"
   xmlns:inkscape="http://www.inkscape.org/namespaces/inkscape"
   version="1.1"
   id="Layer_1"
   x="0px"
   y="0px"
   width="976"
   height="342.66666"
   viewBox="0 0 976 342.66664"
   enable-background="new 0 0 1200 330.709"
   xml:space="preserve"
   inkscape:version="0.91 r13725"
   sodipodi:docname="calvin-college-inverse-nodate.svg"><metadata
     id="metadata61"><rdf:RDF><cc:Work
         rdf:about=""><dc:format>image/svg+xml</dc:format><dc:type
           rdf:resource="http://purl.org/dc/dcmitype/StillImage" /><dc:title></dc:title></cc:Work></rdf:RDF></metadata><defs
     id="defs59"><clipPath
       clipPathUnits="userSpaceOnUse"
       id="clipPath3389"><path
         d="m 1153.617,173.879 -35.126,0 0,14.313 1.886,0 2.257,-7.939 24.873,0 -22.358,46.136 8.034,0 c 0.626,-2.024 1.336,-4.181 2.16,-6.525 0.921,-2.62 1.926,-5.366 3.017,-8.237 1.089,-2.874 2.258,-5.827 3.504,-8.861 1.245,-3.034 2.522,-6.095 3.834,-9.181 1.31,-3.088 2.646,-6.142 4.009,-9.161 1.362,-3.019 2.717,-5.96 4.068,-8.821 l -0.158,-1.724 z"
         id="path3391"
         inkscape:connector-curvature="0"
         style="fill:#f4cd00" /></clipPath><clipPath
       clipPathUnits="userSpaceOnUse"
       id="clipPath3393"><path
         d="m 1153.617,173.879 -35.126,0 0,14.313 1.886,0 2.257,-7.939 24.873,0 -22.358,46.136 8.034,0 c 0.626,-2.024 1.336,-4.181 2.16,-6.525 0.921,-2.62 1.926,-5.366 3.017,-8.237 1.089,-2.874 2.258,-5.827 3.504,-8.861 1.245,-3.034 2.522,-6.095 3.834,-9.181 1.31,-3.088 2.646,-6.142 4.009,-9.161 1.362,-3.019 2.717,-5.96 4.068,-8.821 l -0.158,-1.724 z"
         id="path3395"
         inkscape:connector-curvature="0"
         style="fill:#f4cd00" /></clipPath><clipPath
       clipPathUnits="userSpaceOnUse"
       id="clipPath3397"><path
         d="m 1153.617,173.879 -35.126,0 0,14.313 1.886,0 2.257,-7.939 24.873,0 -22.358,46.136 8.034,0 c 0.626,-2.024 1.336,-4.181 2.16,-6.525 0.921,-2.62 1.926,-5.366 3.017,-8.237 1.089,-2.874 2.258,-5.827 3.504,-8.861 1.245,-3.034 2.522,-6.095 3.834,-9.181 1.31,-3.088 2.646,-6.142 4.009,-9.161 1.362,-3.019 2.717,-5.96 4.068,-8.821 l -0.158,-1.724 z"
         id="path3399"
         inkscape:connector-curvature="0"
         style="fill:#f4cd00" /></clipPath></defs><sodipodi:namedview
     pagecolor="#ffffff"
     bordercolor="#666666"
     borderopacity="1"
     objecttolerance="10"
     gridtolerance="10"
     guidetolerance="10"
     inkscape:pageopacity="0"
     inkscape:pageshadow="2"
     inkscape:window-width="640"
     inkscape:window-height="480"
     id="namedview57"
     showgrid="false"
     fit-margin-top="0"
     fit-margin-left="0"
     fit-margin-right="0"
     fit-margin-bottom="0"
     inkscape:zoom="0.24"
     inkscape:cx="596.33333"
     inkscape:cy="174.18783"
     inkscape:window-x="507"
     inkscape:window-y="50"
     inkscape:window-maximized="0"
     inkscape:current-layer="Layer_1" /><g
     id="g3"
     transform="translate(-3.6666665,3.1243184)"><path
       d="m 862.229,177.471 -17.088,-11.162 0,-22.285 -29.831,-19.494 c -2.553,-1.67 -4.417,-2.105 -5.581,-1.305 -1.163,0.805 -1.745,2.908 -1.745,6.317 l 0,47.408 c 0,3.4 0.6,6.3 1.79,8.667 1.196,2.37 3.04,4.37 5.54,6.003 l 46.918,30.32 0,-44.445 -0.003,-0.024 0,0 z"
       id="path5"
       inkscape:connector-curvature="0"
       style="fill:#98252b" /><path
       d="m 862.229,244.76 -52.623,-34.388 c -6.475,-4.233 -11.592,-9.544 -15.341,-15.946 -3.749,-6.402 -5.629,-12.982 -5.629,-19.743 l 0,-67.994 c 0,-6.76 1.88,-10.888 5.629,-12.389 3.749,-1.495 8.866,-0.126 15.34,4.101 l 52.623,34.393 0,-60.111 0,-0.014 L 749.269,0 l 0,3.654 0,109.672 0,56.501 0,56.501 112.96,72.932 0,-54.471 0,-0.029 z"
       id="path7"
       inkscape:connector-curvature="0"
       style="fill:#98252b" /><path
       d="m 862.229,221.944 -46.918,-30.323 c -2.499,-1.634 -4.342,-3.637 -5.538,-6.003 -1.19,-2.367 -1.788,-5.263 -1.788,-8.667 l 0,-47.408 c 0,-3.41 0.582,-5.512 1.745,-6.317 1.164,-0.8 3.027,-0.365 5.58,1.305 l 29.831,19.49 0,22.285 17.088,11.162 0,-44.648 0,-0.028 -52.623,-34.393 c -6.475,-4.228 -11.592,-5.596 -15.341,-4.101 -3.749,1.501 -5.629,5.629 -5.629,12.389 l 0,67.994 c 0,6.76 1.88,13.34 5.63,19.743 3.75,6.403 8.866,11.71 15.34,15.946 l 52.623,34.388 0,-22.788 0,-0.026 0,0 z"
       id="path9"
       inkscape:connector-curvature="0"
       style="fill:#f4cd00" /><path
       d="m 862.229,221.944 46.919,-30.323 c 2.499,-1.634 4.341,-3.637 5.537,-6.003 1.19,-2.367 1.788,-5.263 1.788,-8.667 l 0,-47.408 c 0,-3.41 -0.582,-5.512 -1.745,-6.317 -1.163,-0.8 -3.027,-0.365 -5.58,1.305 l -29.831,19.494 0,22.285 -17.088,11.162 0,0.028 0,44.444 z"
       id="path11"
       inkscape:connector-curvature="0"
       style="fill:#c3002f" /><path
       d="m 862.229,72.669 0,0.014 0,60.112 52.623,-34.393 c 6.475,-4.228 11.592,-5.596 15.341,-4.101 3.749,1.5 5.63,5.63 5.63,12.389 l 0,67.994 c 0,6.76 -1.88,13.341 -5.629,19.743 -3.749,6.402 -8.866,11.713 -15.341,15.946 l -52.623,34.388 0,0.028 0,54.471 112.96,-72.932 0,-56.501 0,-56.501 0,-109.672 0,-3.654 -112.961,72.669 z"
       id="path13"
       inkscape:connector-curvature="0"
       style="fill:#c3002f" /><path
       d="m 862.229,177.471 17.088,-11.162 0,-22.285 29.831,-19.494 c 2.553,-1.67 4.417,-2.105 5.58,-1.305 1.164,0.81 1.75,2.91 1.75,6.317 l 0,47.408 c 0,3.405 -0.598,6.301 -1.788,8.667 -1.196,2.367 -3.038,4.37 -5.537,6.003 l -46.919,30.32 0,0.028 0,22.788 52.623,-34.388 c 6.475,-4.233 11.592,-9.544 15.341,-15.946 3.749,-6.402 5.629,-12.982 5.629,-19.743 l 0,-67.994 c 0,-6.76 -1.88,-10.888 -5.629,-12.389 -3.749,-1.495 -8.866,-0.126 -15.341,4.101 l -52.623,34.393 0,0.028 0,44.653 z"
       id="path15"
       inkscape:connector-curvature="0"
       style="fill:#ffffff" /></g><path
     d="m 1077.923,198.941 c -3.737,-1.945 -6.286,-3.892 -7.649,-5.836 -1.362,-1.947 -2.043,-4.217 -2.043,-6.813 0,-3.892 1.665,-7.103 4.996,-9.635 3.33,-2.529 7.477,-3.796 12.439,-3.796 4.477,0 8.18,1.01 11.11,3.04 2.927,2.02 4.39,4.65 4.39,7.862 0,4.801 -3.412,9.186 -10.237,13.157 5.189,2.52 8.63,4.91 10.31,7.18 1.687,2.27 2.53,4.98 2.53,8.116 0,4.333 -1.945,7.919 -5.834,10.761 -3.891,2.842 -8.534,4.264 -13.932,4.26 -5.426,0 -9.858,-1.213 -13.297,-3.64 -3.441,-2.425 -5.16,-5.649 -5.16,-9.672 -10e-4,-6.045 4.124,-11.035 12.374,-14.984 z m 3.422,1.441 c -5.083,3.037 -7.626,7.239 -7.626,12.612 0,3.4 0.97,6.1 2.92,8.114 1.95,2.014 4.62,3.02 8.02,3.02 3.099,0 5.698,-0.9 7.793,-2.704 2.096,-1.804 3.144,-4.146 3.144,-7.027 0,-2.751 -0.954,-5.119 -2.864,-7.103 -1.912,-1.994 -5.702,-4.294 -11.382,-6.912 z m 6.079,-4.944 c 3.708,-2.985 5.562,-6.487 5.562,-10.51 0,-2.881 -0.746,-5.104 -2.238,-6.674 -1.492,-1.57 -3.464,-2.356 -5.913,-2.356 -2.472,0 -4.496,0.715 -6.069,2.142 -1.573,1.427 -2.361,3.374 -2.361,5.84 0,2.46 0.85,4.51 2.55,6.15 1.706,1.63 4.525,3.44 8.465,5.408 z"
     id="path17"
     clip-path="url(#clipPath3397)"
     inkscape:connector-curvature="0"
     style="fill:#f4cd00"
     transform="translate(-3.6666665,3.1243184)" /><path
     d="m 1196.935,174.769 c -8.094,1.609 -14.157,4.432 -18.191,8.466 -4.034,4.035 -6.64,8.999 -7.819,14.89 l 0.079,0.039 c 3.168,-3.426 7.282,-5.139 12.337,-5.139 4.688,0 8.64,1.56 11.85,4.671 3.21,3.111 4.814,7.07 4.81,11.87 0,5.085 -1.756,9.302 -5.266,12.649 -3.51,3.35 -7.87,5.023 -13.083,5.023 -5.763,0 -10.426,-2.063 -13.987,-6.189 -3.563,-4.126 -5.344,-9.447 -5.344,-15.959 0,-7.993 2.776,-15.064 8.33,-21.214 5.553,-6.152 14.131,-10.108 25.735,-11.873 l 0.549,2.766 z m -5.109,37.057 c 0,-4.542 -1.054,-8.232 -3.16,-11.074 -2.105,-2.842 -4.796,-4.264 -8.072,-4.264 -2.99,0 -5.42,1.06 -7.292,3.175 -1.872,2.115 -2.807,4.989 -2.807,8.622 0,4.44 1.09,8.24 3.28,11.404 2.184,3.17 4.96,4.75 8.35,4.75 2.937,0 5.289,-1.213 7.058,-3.64 1.758,-2.429 2.647,-5.419 2.647,-8.973 z"
     id="path19"
     clip-path="url(#clipPath3393)"
     inkscape:connector-curvature="0"
     style="fill:#f4cd00"
     transform="translate(-3.6666665,3.1243184)" /><path
     d="m 1041.896,221.917 c -0.701,-0.259 -1.065,-0.922 -1.091,-1.991 l 0,-45.27 -0.46,-0.385 c -4.784,1.216 -9.179,2.329 -13.892,3.359 l 0,2.758 6.917,0.959 c 0.103,5.71 0.16,12.27 0.16,19.676 l 0,9.176 c 0,3.648 -0.026,6.963 -0.078,9.948 -0.027,0.922 -0.377,1.511 -1.051,1.77 l -5.945,2.122 0,2.349 21.632,0.003 0,-2.209 -6.192,-2.265 z"
     id="path21"
     clip-path="url(#clipPath3389)"
     inkscape:connector-curvature="0"
     style="fill:#f4cd00"
     transform="translate(-3.6666665,3.1243184)" /><g
     id="g25"
     transform="translate(-3.6666665,3.1243184)"><path
       d="m 276.513,303.806 0,-0.146 c 0,-14.875 11.136,-27.055 26.978,-27.055 9.642,0 15.47,3.36 20.48,8.14 l -5.903,6.8 c -4.187,-3.888 -8.668,-6.502 -14.647,-6.502 -9.94,0 -17.263,8.221 -17.263,18.459 l 0,0.152 c 0,10.24 7.25,18.53 17.26,18.53 6.426,0 10.536,-2.537 15.021,-6.724 l 5.902,5.982 c -5.455,5.677 -11.434,9.261 -21.225,9.26 -15.242,0.008 -26.606,-11.872 -26.606,-26.896 z"
       id="path27"
       inkscape:connector-curvature="0"
       style="fill:#ffffff" /><path
       d="m 339.993,303.806 0,-0.146 c 0,-14.723 11.361,-27.055 27.429,-27.055 16.068,0 27.277,12.18 27.28,26.902 l 0,0.152 c 0,14.717 -11.361,27.048 -27.429,27.048 -16.071,0.003 -27.283,-12.177 -27.283,-26.901 z m 45.063,0 0,-0.146 c 0,-10.168 -7.396,-18.611 -17.787,-18.611 -10.384,0 -17.635,8.297 -17.635,18.459 l 0,0.152 c 0,10.16 7.4,18.53 17.79,18.53 10.382,0 17.636,-8.22 17.636,-18.384 z"
       id="path29"
       inkscape:connector-curvature="0"
       style="fill:#ffffff" /><path
       d="m 415.381,277.5 9.192,0 0,43.947 27.505,0 0,8.367 -36.696,0 0,-52.314 -0.001,0 z"
       id="path31"
       inkscape:connector-curvature="0"
       style="fill:#ffffff" /><path
       d="m 471.204,277.5 9.192,0 0,43.947 27.504,0 0,8.367 -36.696,0 0,-52.314 0,0 z"
       id="path33"
       inkscape:connector-curvature="0"
       style="fill:#ffffff" /><path
       d="m 528.453,277.5 38.79,0 0,8.221 -29.598,0 0,13.6 23.109,0 0,8.221 -23.109,0 0,14.051 29.972,0 0,8.221 -39.164,0 0,-52.314 0,0 z"
       id="path35"
       inkscape:connector-curvature="0"
       style="fill:#ffffff" /><path
       d="m 587.015,303.806 0,-0.146 c 0,-14.653 11.209,-27.055 26.978,-27.055 9.115,0 14.72,2.54 20.1,7.1 l -5.83,6.952 c -4.034,-3.438 -7.993,-5.608 -14.647,-5.608 -9.642,0 -16.962,8.443 -16.962,18.459 l 0,0.152 c 0,10.76 7.1,18.68 17.79,18.681 4.929,0 9.414,-1.573 12.63,-3.965 l 0,-9.788 -13.378,0 0,-7.993 22.272,0 0,21.967 c -5.157,4.409 -12.554,8.145 -21.821,8.145 -16.368,0.003 -27.137,-11.657 -27.137,-26.901 z"
       id="path37"
       inkscape:connector-curvature="0"
       style="fill:#ffffff" /><path
       d="m 659.351,277.5 38.79,0 0,8.221 -29.598,0 0,13.6 23.109,0 0,8.221 -23.109,0 0,14.051 29.972,0 0,8.221 -39.164,0 0,-52.314 0,0 z"
       id="path39"
       inkscape:connector-curvature="0"
       style="fill:#ffffff" /></g><g
     id="g41"
     transform="translate(-3.6666665,3.1243184)"><path
       d="m 134.272,108.379 -9.306,0 -13.187,-32.452 c -6.082,-1.924 -12.664,-2.893 -19.748,-2.893 -17.013,0 -30.179,6.372 -39.489,19.115 -9.317,12.744 -13.976,29.427 -13.976,50.058 0,22.02 5.49,39.57 16.46,52.65 10.964,13.09 26.19,19.64 45.67,19.636 10.852,0 22.285,-2.194 34.297,-6.583 l 1.496,6.58 c -15.392,10.47 -32.795,15.702 -52.193,15.702 -25.171,0 -45.518,-7.584 -61.029,-22.753 C 7.756,192.29 0,172.31 0,147.52 0,121.117 8.507,100.216 25.52,84.817 42.533,69.418 64.739,61.722 92.15,61.722 c 13.547,0 27.41,1.58 41.57,4.738 l 0.55,1.153 0,40.767 0.002,0 z"
       id="path43"
       inkscape:connector-curvature="0"
       style="fill:#ffffff" /><path
       d="m 218.018,216.923 c -9.772,8.237 -20.13,12.355 -31.062,12.355 -10.701,0 -19.511,-2.675 -26.443,-8.026 -6.925,-5.35 -10.391,-12.875 -10.391,-22.575 0,-12.091 5.601,-20.941 16.802,-26.561 11.202,-5.621 27.998,-8.428 50.401,-8.428 l 0.119,-8.665 c 0.072,-8.237 -1.904,-14.299 -5.95,-18.186 -4.039,-3.888 -10.332,-5.831 -18.878,-5.831 -7.927,0 -17.435,1.733 -28.525,5.2 l -3.229,-9.238 c 16.394,-7.466 32.175,-11.202 47.343,-11.202 13.857,0 24.23,3.1 31.12,9.291 6.886,6.2 10.29,15.11 10.22,26.73 l -0.58,48.042 c -0.152,3.927 -0.079,6.32 0.23,8.709 0.31,2.38 1.39,5.21 3.73,7.331 3.316,3.01 7.5,3.72 12.9,4.8 l 0,5.635 c 0,0 -20.403,0 -28.071,0 -7.662,0.006 -16.894,-3.694 -19.734,-9.381 z m -0.692,-42.273 c -12.085,0 -20.71,1.542 -25.863,4.619 -5.159,3.084 -7.736,8.355 -7.736,15.821 0,6.78 1.82,11.61 5.48,14.5 3.66,2.89 7.986,4.33 12.99,4.329 5.693,0 10.661,-1.463 14.892,-4.388 l 0.237,-34.878 z"
       id="path45"
       inkscape:connector-curvature="0"
       style="fill:#ffffff" /><polygon
       points="527.05,61.72 494.26,82.82 494.26,108.16 527.05,87.06 "
       id="polygon47"
       style="fill:#ffffff" /><path
       d="m 494.098,133.339 0,64.871 c 0,7.09 -0.079,12.131 -0.23,15.129 -0.158,1.851 -1.12,3.005 -2.886,3.47 l -14.29,4.039 0,5.548 67.926,0 0,-5.548 -14.608,-4.039 c -1.772,-0.54 -2.735,-1.845 -2.886,-3.927 -0.151,-3.617 -0.23,-10.003 -0.23,-19.168 l 0,-81.472 -32.796,21.097 z"
       id="path49"
       inkscape:connector-curvature="0"
       style="fill:#ffffff" /><path
       d="m 327.122,213.339 c -0.158,-2.998 -0.231,-8.039 -0.231,-15.129 l 0,-143.52 0,-14.182 -32.794,21.101 0,132.1 c 0,9.165 -0.079,15.551 -0.231,19.168 -0.158,2.083 -1.12,3.387 -2.893,3.927 l -14.605,4.039 0,5.548 68.159,0 0,-5.548 -14.519,-4.039 c -1.773,-0.464 -2.738,-1.614 -2.888,-3.465 z"
       id="path51"
       inkscape:connector-curvature="0"
       style="fill:#ffffff" /><path
       d="m 683.632,216.805 c -1.924,-0.54 -2.925,-1.845 -3.005,-3.927 -0.151,-4.619 -0.231,-11.735 -0.231,-21.362 l 0,-40.53 c 0,-11.241 -3.196,-19.919 -9.581,-26.04 -6.392,-6.121 -15.208,-9.179 -26.449,-9.179 -12.697,0 -25.56,4.309 -38.567,12.928 l 0,-1.714 0,-8.559 -18.306,0 -31.838,0 0,5.548 0.489,0.135 14.086,3.904 c 1.584,0.43 2.44,1.49 2.6,3.141 0.012,0.11 0.05,0.2 0.05,0.33 0.079,4.9 0.12,9.62 0.12,14.138 l 0,53.526 c 0,4.54 -0.039,9.278 -0.119,14.2 -0.072,1.852 -0.962,3.005 -2.655,3.466 l -14.575,4.04 0,5.548 65.157,0 0,-5.548 -12.127,-3.69 c -1.694,-0.468 -2.576,-1.733 -2.655,-3.815 -0.152,-8.006 -0.231,-16.816 -0.231,-26.442 l 0,-49.663 c 6.774,-3.69 13.356,-5.542 19.748,-5.542 7.314,0 12.82,2.06 16.51,6.181 3.697,4.12 5.54,10.91 5.54,20.38 l 0,48.384 c 0,3.697 -0.04,6.122 -0.112,7.275 -0.158,1.772 -1.12,2.925 -2.893,3.466 l -11.314,3.459 0,5.548 64.492,0 0,-5.548 -14.134,-4.038 z"
       id="path53"
       inkscape:connector-curvature="0"
       style="fill:#ffffff" /><path
       d="m 431.734,118.421 0,5.542 12.296,3.466 c -5.924,16.012 -11.966,31.753 -18.127,47.23 -1.924,4.698 -3.848,9.706 -5.772,15.017 -1.852,-5.469 -3.657,-10.47 -5.429,-15.017 -6.695,-17.086 -12.513,-32.827 -17.435,-47.225 l 12.009,-3.466 0,-5.542 -62.357,0 0,5.542 11.544,3.235 c 2.155,0.77 3.85,2.5 5.09,5.192 l 37.976,93.999 15.994,0 c 4.076,-10.291 10.086,-25.01 18.023,-44.171 8.125,-19.59 15.188,-36.392 21.191,-50.401 1.08,-2.385 2.576,-3.888 4.507,-4.507 l 12.18,-3.347 0,-5.542 -41.69,-0.005 0,0 z"
       id="path55"
       inkscape:connector-curvature="0"
       style="fill:#ffffff" /></g></svg>